{
  "accessors": [
    {
      "bufferView": 1,
      "componentType": 5126,
      "count": 673,
      "max": [
        19.598840713500977,
        2.9802000522613525,
        2.6407999992370605
      ],
      "min": [
        -17.187400817871094,
        -1.1299699544906616,
        -2.6407999992370605
      ],
      "type": "VEC3"
    },
    {
      "bufferView": 1,
      "byteOffset": 8076,
      "componentType": 5126,
      "count": 673,
      "max": [
        0.83351951837539673,
        1,
        1
      ],
      "min": [
        -1,
        -1,
        -0.9999808669090271
      ],
      "type": "VEC3"
    },
    {
      "bufferView": 0,
      "componentType": 5125,
      "count": 2610,
      "max": [
        672
      ],
      "min": [
        0
      ],
      "type": "SCALAR"
    },
    {
      "bufferView": 1,
      "byteOffset": 16152,
      "componentType": 5126,
      "count": 36,
      "max": [
        19.470060348510742,
        2.1123499870300293,
        0.56641000509262085
      ],
      "min": [
        18.263959884643555,
        1.6445499658584595,
        -0.56641000509262085
      ],
      "type": "VEC3"
    },
    {
      "bufferView": 1,
      "byteOffset": 16584,
      "componentType": 5126,
      "count": 36,
      "max": [
        0.36490753293037415,
        0.99919652938842773,
        0.95552480220794678
      ],
      "min": [
        -0.42923811078071594,
        -0.46783700585365295,
        -0.95552480220794678
      ],
      "type": "VEC3"
    },
    {
      "bufferView": 0,
      "byteOffset": 10440,
      "componentType": 5125,
      "count": 81,
      "max": [
        35
      ],
      "min": [
        0
      ],
      "type": "SCALAR"
    },
    {
      "bufferView": 1,
      "byteOffset": 17016,
      "componentType": 5126,
      "count": 96,
      "max": [
        19.537349700927734,
        2.1123499870300293,
        0.12026000022888184
      ],
      "min": [
        19.429159164428711,
        1.9799900054931641,
        -0.12026000022888184
      ],
      "type": "VEC3"
    },
    {
      "bufferView": 1,
      "byteOffset": 18168,
      "componentType": 5126,
      "count": 96,
      "max": [
        -0.25600138306617737,
        0.85166031122207642,
        0.9593464732170105
      ],
      "min": [
        -0.92753702402114868,
        -0.82744073867797852,
        -0.9593464732170105
      ],
      "type": "VEC3"
    },
    {
      "bufferView": 0,
      "byteOffset": 10764,
      "componentType": 5125,
      "count": 132,
      "max": [
        95
      ],
      "min": [
        0
      ],
      "type": "SCALAR"
    },
    {
      "bufferView": 1,
      "byteOffset": 19320,
      "componentType": 5126,
      "count": 768,
      "max": [
        1,
        1,
        1
      ],
      "min": [
        -3.6729099750518799,
        -1,
        -13.922229766845703
      ],
      "type": "VEC3"
    },
    {
      "bufferView": 1,
      "byteOffset": 28536,
      "componentType": 5126,
      "count": 768,
      "max": [
        0.99519890546798706,
        0.99518346786499023,
        1
      ],
      "min": [
        -0.99520057439804077,
        -0.99518346786499023,
        -0.52341759204864502
      ],
      "type": "VEC3"
    },
    {
      "bufferView": 0,
      "byteOffset": 11292,
      "componentType": 5125,
      "count": 1146,
      "max": [
        767
      ],
      "min": [
        0
      ],
      "type": "SCALAR"
    },
    {
      "bufferView": 1,
      "byteOffset": 37752,
      "componentType": 5126,
      "count": 240,
      "max": [
        0.95105999708175659,
        1,
        1
      ],
      "min": [
        -0.95105999708175659,
        -1,
        -1
      ],
      "type": "VEC3"
    },
    {
      "bufferView": 1,
      "byteOffset": 40632,
      "componentType": 5126,
      "count": 240,
      "max": [
        0.99207723140716553,
        0.94352102279663086,
        0.94352495670318604
      ],
      "min": [
        -0.99207723140716553,
        -0.94352102279663086,
        -0.94352495670318604
      ],
      "type": "VEC3"
    },
    {
      "bufferView": 0,
      "byteOffset": 15876,
      "componentType": 5125,
      "count": 240,
      "max": [
        239
      ],
      "min": [
        0
      ],
      "type": "SCALAR"
    },
    {
      "bufferView": 1,
      "byteOffset": 43512,
      "componentType": 5126,
      "count": 240,
      "max": [
        0.95105999708175659,
        1,
        1
      ],
      "min": [
        -0.95105999708175659,
        -1,
        -1
      ],
      "type": "VEC3"
    },
    {
      "bufferView": 1,
      "byteOffset": 46392,
      "componentType": 5126,
      "count": 240,
      "max": [
        0.99207723140716553,
        0.94352102279663086,
        0.94352495670318604
      ],
      "min": [
        -0.99207723140716553,
        -0.94352102279663086,
        -0.94352495670318604
      ],
      "type": "VEC3"
    },
    {
      "bufferView": 0,
      "byteOffset": 16836,
      "componentType": 5125,
      "count": 240,
      "max": [
        239
      ],
      "min": [
        0
      ],
      "type": "SCALAR"
    },
    {
      "bufferView": 1,
      "byteOffset": 49272,
      "componentType": 5126,
      "count": 768,
      "max": [
        1,
        1,
        1
      ],
      "min": [
        -3.6729099750518799,
        -1,
        -13.922229766845703
      ],
      "type": "VEC3"
    },
    {
      "bufferView": 1,
      "byteOffset": 58488,
      "componentType": 5126,
      "count": 768,
      "max": [
        0.99519890546798706,
        0.99518346786499023,
        1
      ],
      "min": [
        -0.99520057439804077,
        -0.99518346786499023,
        -0.52341759204864502
      ],
      "type": "VEC3"
    },
    {
      "bufferView": 0,
      "byteOffset": 17796,
      "componentType": 5125,
      "count": 1146,
      "max": [
        767
      ],
      "min": [
        0
      ],
      "type": "SCALAR"
    }
  ],
  "asset": {
    "extras": {
      "author": "Zafflex (https://sketchfab.com/Zafflex)",
      "license": "CC-BY-4.0 (http://creativecommons.org/licenses/by/4.0/)",
      "source": "https://sketchfab.com/3d-models/low-poly-walrus-ae6589db12fc48f78081a1c054354888",
      "title": "Low-poly Walrus"
    },
    "generator": "Sketchfab-6.33.0",
    "version": "2.0"
  },
  "bufferViews": [
    {
      "buffer": 0,
      "byteLength": 22380,
      "byteOffset": 0,
      "name": "floatBufferViews",
      "target": 34963
    },
    {
      "buffer": 0,
      "byteLength": 67704,
      "byteOffset": 22380,
      "byteStride": 12,
      "name": "floatBufferViews",
      "target": 34962
    }
  ],
  "buffers": [
    {
      "byteLength": 90084,
      "uri": "walrus.bin"
    }
  ],
  "materials": [
    {
      "doubleSided": true,
      "emissiveFactor": [
        0,
        0,
        0
      ],
      "name": "Walrus",
      "pbrMetallicRoughness": {
        "baseColorFactor": [
          0.42922484874725342,
          0.15045075118541718,
          0.060055285692214966,
          1
        ],
        "metallicFactor": 0,
        "roughnessFactor": 0.59999999999999998
      }
    },
    {
      "doubleSided": true,
      "emissiveFactor": [
        0,
        0,
        0
      ],
      "name": "Walrus_beard",
      "pbrMetallicRoughness": {
        "baseColorFactor": [
          0.52771800756454468,
          0.39962288737297058,
          0.27792727947235107,
          1
        ],
        "metallicFactor": 0,
        "roughnessFactor": 0.59999999999999998
      }
    },
    {
      "doubleSided": true,
      "emissiveFactor": [
        0,
        0,
        0
      ],
      "name": "Walrus_eye",
      "pbrMetallicRoughness": {
        "baseColorFactor": [
          0.011087562888860703,
          0.011087562888860703,
          0.011087562888860703,
          1
        ],
        "metallicFactor": 0,
        "roughnessFactor": 0.59999999999999998
      }
    },
    {
      "doubleSided": true,
      "emissiveFactor": [
        0,
        0,
        0
      ],
      "name": "Walrus_tooth",
      "pbrMetallicRoughness": {
        "baseColorFactor": [
          0.80000007152557373,
          0.74480241537094116,
          0.53952986001968384,
          1
        ],
        "metallicFactor": 0,
        "roughnessFactor": 0.59999999999999998
      }
    }
  ],
  "meshes": [
    {
      "name": "Plane_0",
      "primitives": [
        {
          "attributes": {
            "NORMAL": 1,
            "POSITION": 0
          },
          "indices": 2,
          "material": 0,
          "mode": 4
        }
      ]
    },
    {
      "name": "Plane_1",
      "primitives": [
        {
          "attributes": {
            "NORMAL": 4,
            "POSITION": 3
          },
          "indices": 5,
          "material": 1,
          "mode": 4
        }
      ]
    },
    {
      "name": "Plane_2",
      "primitives": [
        {
          "attributes": {
            "NORMAL": 7,
            "POSITION": 6
          },
          "indices": 8,
          "material": 2,
          "mode": 4
        }
      ]
    },
    {
      "name": "Cylinder_0",
      "primitives": [
        {
          "attributes": {
            "NORMAL": 10,
            "POSITION": 9
          },
          "indices": 11,
          "material": 3,
          "mode": 4
        }
      ]
    },
    {
      "name": "Icosphere_0",
      "primitives": [
        {
          "attributes": {
            "NORMAL": 13,
            "POSITION": 12
          },
          "indices": 14,
          "material": 2,
          "mode": 4
        }
      ]
    },
    {
      "name": "Icosphere.001_0",
      "primitives": [
        {
          "attributes": {
            "NORMAL": 16,
            "POSITION": 15
          },
          "indices": 17,
          "material": 2,
          "mode": 4
        }
      ]
    },
    {
      "name": "Cylinder.001_0",
      "primitives": [
        {
          "attributes": {
            "NORMAL": 19,
            "POSITION": 18
          },
          "indices": 20,
          "material": 3,
          "mode": 4
        }
      ]
    }
  ],
  "nodes": [
    {
      "children": [
        1
      ],
      "name": "RootNode (gltf orientation matrix)",
      "rotation": [
        -0.70710678118654746,
        -0,
        -0,
        0.70710678118654757
      ]
    },
    {
      "children": [
        2
      ],
      "name": "RootNode (model correction matrix)"
    },
    {
      "children": [
        3
      ],
      "name": "Root"
    },
    {
      "children": [
        4,
        5,
        6,
        7,
        9,
        11,
        13
      ],
      "matrix": [
        0.30222000000000004,
        0,
        0,
        0,
        0,
        -0,
        1.04251,
        0,
        0,
        -1,
        -0,
        0,
        -1.4553399999999999,
        0,
        -1.3755899999999999,
        1
      ],
      "name": "Plane"
    },
    {
      "mesh": 0,
      "name": "Plane_0"
    },
    {
      "mesh": 1,
      "name": "Plane_1"
    },
    {
      "mesh": 2,
      "name": "Plane_2"
    },
    {
      "children": [
        8
      ],
      "matrix": [
        0.23843000000000003,
        0,
        0,
        0,
        0,
        -0,
        -0.072060000000000013,
        0,
        0,
        0.069120000000000029,
        -0,
        0,
        18.570229999999999,
        1.7595500000000002,
        -0.20000000000000001,
        1
      ],
      "name": "Cylinder"
    },
    {
      "mesh": 3,
      "name": "Cylinder_0"
    },
    {
      "children": [
        10
      ],
      "matrix": [
        0.21088000000000001,
        0,
        0,
        0,
        0,
        -0,
        -0.059120000000000013,
        0,
        0,
        0.061130000000000018,
        -0,
        0,
        17.909689999999998,
        2.4258399999999996,
        -0.38552000000000008,
        1
      ],
      "name": "Icosphere"
    },
    {
      "mesh": 4,
      "name": "Icosphere_0"
    },
    {
      "children": [
        12
      ],
      "matrix": [
        0.21088000000000001,
        0,
        0,
        0,
        0,
        -0,
        -0.059120000000000013,
        0,
        0,
        0.061130000000000018,
        -0,
        0,
        17.909689999999998,
        2.4258399999999996,
        0.38552000000000008,
        1
      ],
      "name": "Icosphere.001"
    },
    {
      "mesh": 5,
      "name": "Icosphere.001_0"
    },
    {
      "children": [
        14
      ],
      "matrix": [
        0.23843000000000003,
        0,
        0,
        0,
        0,
        -0,
        -0.072060000000000013,
        0,
        0,
        0.069120000000000029,
        -0,
        0,
        18.570229999999999,
        1.7595500000000002,
        0.20000000000000001,
        1
      ],
      "name": "Cylinder.001"
    },
    {
      "mesh": 6,
      "name": "Cylinder.001_0"
    }
  ],
  "scene": 0,
  "scenes": [
    {
      "name": "OSG_Scene",
      "nodes": [
        0
      ]
    }
  ]
}

