{
    "asset" : {
        "generator" : "Khronos glTF Blender I/O v1.2.75",
        "version" : "2.0"
    },
    "scene" : 0,
    "scenes" : [
        {
            "name" : "Scene",
            "nodes" : [
                9
            ]
        }
    ],
    "nodes" : [
        {
            "mesh" : 0,
            "name" : "Mesh_3",
            "scale" : [
                0.3331572711467743,
                1,
                0.2822844982147217
            ]
        },
        {
            "children" : [
                0
            ],
            "name" : "Circle_3",
            "scale" : [
                9.09878158569336,
                9.09878158569336,
                9.09878158569336
            ]
        },
        {
            "mesh" : 1,
            "name" : "Mesh_0"
        },
        {
            "mesh" : 2,
            "name" : "Mesh_1"
        },
        {
            "mesh" : 3,
            "name" : "Mesh_2"
        },
        {
            "children" : [
                2,
                3,
                4
            ],
            "name" : "Polar Bear_1",
            "translation" : [
                -0.031145039945840836,
                1.448298454284668,
                -0.0022776955738663673
            ]
        },
        {
            "children" : [
                1,
                5
            ],
            "name" : "GLTF_SceneRootNode",
            "rotation" : [
                0.7071068286895752,
                0,
                0,
                0.7071068286895752
            ]
        },
        {
            "children" : [
                6
            ],
            "name" : "root"
        },
        {
            "children" : [
                7
            ],
            "name" : "RootNode (model correction matrix)"
        },
        {
            "children" : [
                8
            ],
            "name" : "RootNode (gltf orientation matrix)",
            "rotation" : [
                -0.7071067690849304,
                0,
                0,
                0.7071067690849304
            ]
        }
    ],
    "materials" : [
        {
            "doubleSided" : true,
            "emissiveFactor" : [
                0,
                0,
                0
            ],
            "name" : "Blue",
            "pbrMetallicRoughness" : {
                "baseColorFactor" : [
                    0.1315392106771469,
                    0.2532438337802887,
                    1,
                    1
                ],
                "metallicFactor" : 0,
                "roughnessFactor" : 0.5
            }
        },
        {
            "doubleSided" : true,
            "emissiveFactor" : [
                0.5630606412887573,
                0.5630606412887573,
                0.5630606412887573
            ],
            "name" : "Body",
            "pbrMetallicRoughness" : {
                "baseColorFactor" : [
                    0.800000011920929,
                    0.800000011920929,
                    0.800000011920929,
                    1
                ],
                "metallicFactor" : 0,
                "roughnessFactor" : 0.5
            }
        },
        {
            "doubleSided" : true,
            "emissiveFactor" : [
                0,
                0,
                0
            ],
            "name" : "balck",
            "pbrMetallicRoughness" : {
                "baseColorFactor" : [
                    0,
                    0,
                    0,
                    1
                ],
                "metallicFactor" : 0.24166665971279144,
                "roughnessFactor" : 0.5
            }
        },
        {
            "doubleSided" : true,
            "emissiveFactor" : [
                0,
                0,
                0
            ],
            "name" : "gray",
            "pbrMetallicRoughness" : {
                "baseColorFactor" : [
                    0.08353172242641449,
                    0.07554245740175247,
                    0.08302681148052216,
                    1
                ],
                "metallicFactor" : 0,
                "roughnessFactor" : 0.5
            }
        }
    ],
    "meshes" : [
        {
            "name" : "Mesh_3",
            "primitives" : [
                {
                    "attributes" : {
                        "POSITION" : 0,
                        "NORMAL" : 1,
                        "TEXCOORD_0" : 2
                    },
                    "indices" : 3,
                    "material" : 0
                }
            ]
        },
        {
            "name" : "Mesh_0",
            "primitives" : [
                {
                    "attributes" : {
                        "POSITION" : 4,
                        "NORMAL" : 5,
                        "TEXCOORD_0" : 6
                    },
                    "indices" : 7,
                    "material" : 1
                }
            ]
        },
        {
            "name" : "Mesh_1",
            "primitives" : [
                {
                    "attributes" : {
                        "POSITION" : 8,
                        "NORMAL" : 9,
                        "TEXCOORD_0" : 10
                    },
                    "indices" : 11,
                    "material" : 2
                }
            ]
        },
        {
            "name" : "Mesh_2",
            "primitives" : [
                {
                    "attributes" : {
                        "POSITION" : 12,
                        "NORMAL" : 13,
                        "TEXCOORD_0" : 14
                    },
                    "indices" : 15,
                    "material" : 3
                }
            ]
        }
    ],
    "accessors" : [
        {
            "bufferView" : 0,
            "componentType" : 5126,
            "count" : 38,
            "max" : [
                1,
                0,
                1
            ],
            "min" : [
                -1,
                0,
                -1
            ],
            "type" : "VEC3"
        },
        {
            "bufferView" : 1,
            "componentType" : 5126,
            "count" : 38,
            "type" : "VEC3"
        },
        {
            "bufferView" : 2,
            "componentType" : 5126,
            "count" : 38,
            "type" : "VEC2"
        },
        {
            "bufferView" : 3,
            "componentType" : 5123,
            "count" : 90,
            "type" : "SCALAR"
        },
        {
            "bufferView" : 4,
            "componentType" : 5126,
            "count" : 2703,
            "max" : [
                2.500319242477417,
                1.4107859134674072,
                0.834190309047699
            ],
            "min" : [
                -2.3714535236358643,
                -1.4128451347351074,
                -0.834190309047699
            ],
            "type" : "VEC3"
        },
        {
            "bufferView" : 5,
            "componentType" : 5126,
            "count" : 2703,
            "type" : "VEC3"
        },
        {
            "bufferView" : 6,
            "componentType" : 5126,
            "count" : 2703,
            "type" : "VEC2"
        },
        {
            "bufferView" : 7,
            "componentType" : 5123,
            "count" : 3711,
            "type" : "SCALAR"
        },
        {
            "bufferView" : 8,
            "componentType" : 5126,
            "count" : 32,
            "max" : [
                2.500319242477417,
                1.2247353792190552,
                0.2713431119918823
            ],
            "min" : [
                2.0656042098999023,
                0.7432305216789246,
                -0.2713431119918823
            ],
            "type" : "VEC3"
        },
        {
            "bufferView" : 9,
            "componentType" : 5126,
            "count" : 32,
            "type" : "VEC3"
        },
        {
            "bufferView" : 10,
            "componentType" : 5126,
            "count" : 32,
            "type" : "VEC2"
        },
        {
            "bufferView" : 11,
            "componentType" : 5123,
            "count" : 48,
            "type" : "SCALAR"
        },
        {
            "bufferView" : 12,
            "componentType" : 5126,
            "count" : 24,
            "max" : [
                1.7537460327148438,
                1.3391485214233398,
                0.43768060207366943
            ],
            "min" : [
                1.7277393341064453,
                1.171046495437622,
                -0.43768060207366943
            ],
            "type" : "VEC3"
        },
        {
            "bufferView" : 13,
            "componentType" : 5126,
            "count" : 24,
            "type" : "VEC3"
        },
        {
            "bufferView" : 14,
            "componentType" : 5126,
            "count" : 24,
            "type" : "VEC2"
        },
        {
            "bufferView" : 15,
            "componentType" : 5123,
            "count" : 36,
            "type" : "SCALAR"
        }
    ],
    "bufferViews" : [
        {
            "buffer" : 0,
            "byteLength" : 456,
            "byteOffset" : 0
        },
        {
            "buffer" : 0,
            "byteLength" : 456,
            "byteOffset" : 456
        },
        {
            "buffer" : 0,
            "byteLength" : 304,
            "byteOffset" : 912
        },
        {
            "buffer" : 0,
            "byteLength" : 180,
            "byteOffset" : 1216
        },
        {
            "buffer" : 0,
            "byteLength" : 32436,
            "byteOffset" : 1396
        },
        {
            "buffer" : 0,
            "byteLength" : 32436,
            "byteOffset" : 33832
        },
        {
            "buffer" : 0,
            "byteLength" : 21624,
            "byteOffset" : 66268
        },
        {
            "buffer" : 0,
            "byteLength" : 7422,
            "byteOffset" : 87892
        },
        {
            "buffer" : 0,
            "byteLength" : 384,
            "byteOffset" : 95316
        },
        {
            "buffer" : 0,
            "byteLength" : 384,
            "byteOffset" : 95700
        },
        {
            "buffer" : 0,
            "byteLength" : 256,
            "byteOffset" : 96084
        },
        {
            "buffer" : 0,
            "byteLength" : 96,
            "byteOffset" : 96340
        },
        {
            "buffer" : 0,
            "byteLength" : 288,
            "byteOffset" : 96436
        },
        {
            "buffer" : 0,
            "byteLength" : 288,
            "byteOffset" : 96724
        },
        {
            "buffer" : 0,
            "byteLength" : 192,
            "byteOffset" : 97012
        },
        {
            "buffer" : 0,
            "byteLength" : 72,
            "byteOffset" : 97204
        }
    ],
    "buffers" : [
        {
            "byteLength" : 97276,
            "uri" : "data:application/octet-stream;base64,"
        }
    ]
}
